# xmcd CD database file generated by Grip 3.0.3
# 
# Track frame offsets:
#       150
#       16195
#       33357
#       61467
#       82737
#       100237
#       125202
#       141410
#       161922
#       178157
#       195137
#       212707
#       230160
#       239280
# 
# Disc length: 3287 seconds
# 
# Revision: 1
# Processed by: cddbd v1.4PL0 Copyright (c) Steve Scherf et al.
# Submitted via: Grip 3.0.3
# 
DISCID=c10cd50e
DTITLE=Various Artist - Proud - An Urban-Pacific Streetsoul Compilation
DYEAR=1994
DGENRE=
TTITLE0=Sisters Underground - In The Neighbourhood
TTITLE1=Pacifican Descendants - Tuesday Blues
TTITLE2=Otara Millioniaires Club - We R The O.M.C.
TTITLE3=Radio Backstab and DJ Payback - Bassed On A Lost Cause
TTITLE4=Pacifican Descendants - Pass It Over
TTITLE5=Di-na-ve - Dawn Of The Eve
TTITLE6=Vocal Five - One Too Many
TTITLE7=Semi MC's - I Don't Need You
TTITLE8=Sisters Underground - Ain't It True
TTITLE9=Rhythm Harmony - Groove Me
TTITLE10=Semi MC's - Trust Me
TTITLE11=MC Slam - Prove Me Wrong
TTITLE12=Puka Puka - Pacific Beats
TTITLE13=Vocal Five - God Defend New Zealand
EXTD=YEAR: 1994
EXTT0=
EXTT1=
EXTT2=
EXTT3=
EXTT4=
EXTT5=
EXTT6=
EXTT7=
EXTT8=
EXTT9=
EXTT10=
EXTT11=
EXTT12=
EXTT13=
PLAYORDER=
